<?xml version="1.0" encoding="UTF-8" standalone="no"?>
<!-- Created with Inkscape (http://www.inkscape.org/) -->

<svg
   xmlns:dc="http://purl.org/dc/elements/1.1/"
   xmlns:cc="http://creativecommons.org/ns#"
   xmlns:rdf="http://www.w3.org/1999/02/22-rdf-syntax-ns#"
   xmlns:svg="http://www.w3.org/2000/svg"
   xmlns="http://www.w3.org/2000/svg"
   xmlns:sodipodi="http://sodipodi.sourceforge.net/DTD/sodipodi-0.dtd"
   xmlns:inkscape="http://www.inkscape.org/namespaces/inkscape"
   width="300mm"
   height="300mm"
   viewBox="0 0 300 300"
   version="1.1"
   id="svg915"
   sodipodi:docname="gato.svg"
   inkscape:version="0.92.0 r15299">
  <defs
     id="defs909" />
  <sodipodi:namedview
     id="base"
     pagecolor="#ffffff"
     bordercolor="#666666"
     borderopacity="1.0"
     inkscape:pageopacity="0.0"
     inkscape:pageshadow="2"
     inkscape:zoom="1.4"
     inkscape:cx="363.436"
     inkscape:cy="294.847"
     inkscape:document-units="mm"
     inkscape:current-layer="layer1"
     showgrid="false"
     viewbox-height="300"
     showguides="true" />
  <metadata
     id="metadata912">
    <rdf:RDF>
      <cc:Work
         rdf:about="">
        <dc:format>image/svg+xml</dc:format>
        <dc:type
           rdf:resource="http://purl.org/dc/dcmitype/StillImage" />
        <dc:title />
      </cc:Work>
    </rdf:RDF>
  </metadata>
  <g
     inkscape:label="Camada 1"
     inkscape:groupmode="layer"
     id="layer1"
     transform="translate(0,3)">
    <path
       style="fill:none;fill-opacity:1;stroke:#ff0000;stroke-width:1.565001;stroke-linecap:butt;stroke-linejoin:miter;stroke-miterlimit:4;stroke-dasharray:none;stroke-opacity:1"
       d="M 217.631,121.107 C 310.686,123.532 219.383,80.3116 238.173,46.3206 241.252,40.7506 247.504,32.9696 253.06,32.5456 262.683,31.8716 264.683,34.0146 250.927,44.0936 225.215,62.9316 274.696,93.5206 273.007,110.592 274.976,123.183 234.572,134.115 234.572,134.115"
       id="path32"
       inkscape:connector-curvature="0"
       sodipodi:nodetypes="cscscc" />
    <path
       style="fill:none;stroke:#f90000;stroke-width:1.265001;stroke-linecap:butt;stroke-linejoin:miter;stroke-miterlimit:4;stroke-dasharray:none;stroke-opacity:1"
       d="M 234.572,134.115 C 234.572,134.115 244.657,141.896 240.31,163.062 245.617,172.188 249.316,185.521 263.687,189.035 268.7,202.89 250.252,223.066 237.097,257.745 230.323,264.416 223.087,266.507 207.426,265.548 201.273,265.171 198.443,267.614 190.606,263.036 184.748,258.69 189.472,252.454 189.472,252.454 189.472,252.454 194.197,249.241 200.434,249.052 201.378,248.485 220.088,230.72 223.868,219.569 224.057,216.357 223.49,212.483 223.49,212.483 L 187.393,187.253 162.636,196.325 C 164.899,230.993 177.394,254.841 162.636,263.604 136.154,269.159 138.222,258.164 140.903,254.722 144.917,249.861 151.616,248.357 151.675,244.705 153.851,238.056 140.351,205.903 139.383,203.233 137.464,203.466 135.236,203.487 132.775,203.317 130.656,209.506 116.097,246.874 110.119,261.769 102.371,267.817 90.7258,269.935 79.4808,266.25 70.2658,263.578 69.4458,250.693 90.0648,251.32 100.063,230.446 113.877,208.797 98.7578,192.356 76.3918,171.598 78.1168,133.375 59.1968,124.26 55.8328,122.64 53.3598,125.461 37.3138,122.541 33.6488,122.056 28.8828,109.484 27.8878,108.445 22.0618,103.015 25.7118,100.254 24.2808,98.5776 18.0908,94.8566 19.6808,88.8476 32.0918,89.5456 33.6688,88.8906 32.8058,70.3976 34.5018,67.8116 40.6038,60.4006 46.6218,56.2116 51.8168,54.3706 54.1698,53.5376 56.3528,53.1856 58.2998,53.2336 61.0968,48.6356 62.3228,46.0206 63.8418,41.4016 65.4778,36.4286 67.3408,29.4706 68.5748,25.1076 72.9648,30.1066 78.0018,35.8896 81.7488,56.0476 88.3278,59.7096 95.1548,62.4696 98.5688,80.0956 99.7278,89.5456 97.9638,98.9956 92.7098,108.445 99.2518,117.177 106.694,121.346 111.309,124.797 L 131.264,125.265 C 131.264,125.265 142.914,132.557 149.151,130.856 164.262,130.282 194.392,116.416 217.631,121.107"
       id="path18"
       inkscape:connector-curvature="0"
       sodipodi:nodetypes="ccccsccccccccccccccccscccccscscccccccc" />
    <path
       style="fill:none;stroke:#fe0000;stroke-width:1.365001;stroke-linecap:butt;stroke-linejoin:miter;stroke-miterlimit:4;stroke-dasharray:none;stroke-opacity:1"
       d="M 217.631,121.107 C 223.211,124.701 228.751,127.864 234.572,134.115"
       id="path837"
       inkscape:connector-curvature="0"
       sodipodi:nodetypes="cc" />
    <path
       style="fill:none;stroke:#ff0000;stroke-width:1.165001;stroke-linecap:butt;stroke-linejoin:miter;stroke-miterlimit:4;stroke-dasharray:none;stroke-opacity:1"
       d="M 240.31,163.062 C 238.721,161.093 235.771,155.353 231.286,145.581"
       id="path839"
       inkscape:connector-curvature="0"
       sodipodi:nodetypes="cc" />
    <path
       style="fill:none;stroke:#ff0000;stroke-width:1.265001;stroke-linecap:butt;stroke-linejoin:miter;stroke-miterlimit:4;stroke-dasharray:none;stroke-opacity:1"
       d="M 207.426,265.548 C 206.145,263.074 202.077,260.246 207.938,254.209 218.029,254.726 229.873,231.659 235.613,212.808 238.71,205.603 213.053,196.58 201.378,187.536 196.133,185.929 190.083,186.854 187.393,187.253"
       id="path841"
       inkscape:connector-curvature="0"
       sodipodi:nodetypes="ccccc" />
    <path
       style="fill:none;stroke:#ff0000;stroke-width:1.265001;stroke-linecap:butt;stroke-linejoin:miter;stroke-miterlimit:4;stroke-dasharray:none;stroke-opacity:1"
       d="M 201.378,187.536 C 178.182,169.741 178.767,158.316 180.495,142.912"
       id="path843"
       inkscape:connector-curvature="0"
       sodipodi:nodetypes="cc" />
    <path
       style="fill:none;stroke:#ff0000;stroke-width:1.165001;stroke-linecap:butt;stroke-linejoin:miter;stroke-miterlimit:4;stroke-dasharray:none;stroke-opacity:1"
       d="M 162.636,196.325 C 153.859,200.151 146.201,202.256 139.383,203.233"
       id="path845"
       inkscape:connector-curvature="0"
       sodipodi:nodetypes="cc" />
    <path
       style="fill:none;stroke:#ff0000;stroke-width:1.465001;stroke-linecap:butt;stroke-linejoin:miter;stroke-miterlimit:4;stroke-dasharray:none;stroke-opacity:1"
       d="M 132.775,203.317 C 139.113,188.539 126.251,196.303 138.618,161.047"
       id="path847"
       inkscape:connector-curvature="0"
       sodipodi:nodetypes="cc" />
    <path
       style="fill:none;stroke:#fc0000;stroke-width:1.165001;stroke-linecap:butt;stroke-linejoin:miter;stroke-miterlimit:4;stroke-dasharray:none;stroke-opacity:1"
       d="M 98.7578,192.356 C 89.3678,170.777 90.2418,161.188 90.1118,151.062"
       id="path849"
       inkscape:connector-curvature="0"
       sodipodi:nodetypes="cc" />
    <path
       style="fill:none;stroke:#ff0000;stroke-width:1.165001;stroke-linecap:butt;stroke-linejoin:miter;stroke-miterlimit:4;stroke-dasharray:none;stroke-opacity:1"
       d="M 81.7488,56.0476 C 82.0648,57.6906 82.0868,59.6726 82.0318,62.0476"
       id="path855"
       inkscape:connector-curvature="0"
       sodipodi:nodetypes="cc" />
    <path
       style="fill:none;stroke:#ff0000;stroke-width:1.265001;stroke-linecap:butt;stroke-linejoin:miter;stroke-miterlimit:4;stroke-dasharray:none;stroke-opacity:1"
       d="M 24.2808,98.5776 C 25.1928,94.3136 28.1258,92.0146 32.0918,89.5456"
       id="path857"
       inkscape:connector-curvature="0"
       sodipodi:nodetypes="cc" />
    <path
       style="fill:none;stroke:#ff0000;stroke-width:1.465001;stroke-linecap:butt;stroke-linejoin:miter;stroke-miterlimit:4;stroke-dasharray:none;stroke-opacity:1"
       d="M 38.9268,81.5336 C 38.6808,87.9456 51.1438,99.3876 53.8268,81.2666 52.5508,55.8776 39.6068,72.8856 38.9268,81.5336 Z"
       id="path859"
       inkscape:connector-curvature="0"
       sodipodi:nodetypes="ccc" />
    <path
       style="fill:none;stroke:#ff0000;stroke-width:1.065001;stroke-linecap:butt;stroke-linejoin:miter;stroke-miterlimit:4;stroke-dasharray:none;stroke-opacity:1"
       d="M 63.9838,52.7866 C 66.5838,48.5356 68.3328,41.5176 69.9368,34.0296 72.2138,40.6886 74.1318,48.5786 75.4178,58.6936"
       id="path861"
       inkscape:connector-curvature="0"
       sodipodi:nodetypes="ccc" />
    <path
       style="fill:none;stroke:#ff0000;stroke-width:1.265001;stroke-linecap:butt;stroke-linejoin:miter;stroke-miterlimit:4;stroke-dasharray:none;stroke-opacity:1"
       d="M 58.2998,53.2336 56.3658,58.0806"
       id="path4507"
       inkscape:connector-curvature="0" />
    <path
       style="fill:none;stroke:#fc0000;stroke-width:1.065001;stroke-linecap:butt;stroke-linejoin:miter;stroke-miterlimit:4;stroke-dasharray:none;stroke-opacity:1"
       d="M 51.8168,54.3706 C 52.6528,44.3856 52.2438,34.8146 52.4088,25.0536 57.8998,28.9816 60.9458,35.1236 63.8418,41.4016"
       id="path4513"
       inkscape:connector-curvature="0"
       sodipodi:nodetypes="ccc" />
  </g>
</svg>
